<svg xmlns="http://www.w3.org/2000/svg" viewBox="0 0 1440 1000" preserveAspectRatio="xMidYMid slice">
  <defs>
    <linearGradient id="sky" x1="0" x2="0" y1="0" y2="1">
      <stop offset="0" stop-color="#9ee8ff"/>
      <stop offset=".52" stop-color="#ffd8e8"/>
      <stop offset="1" stop-color="#efffdc"/>
    </linearGradient>
    <pattern id="pixels" width="48" height="48" patternUnits="userSpaceOnUse">
      <path d="M48 0H0v48" fill="none" stroke="#fff" stroke-opacity=".22" stroke-width="4"/>
    </pattern>
  </defs>
  <rect width="1440" height="1000" fill="url(#sky)"/>
  <rect width="1440" height="1000" fill="url(#pixels)"/>
  <g opacity=".9">
    <rect x="80" y="90" width="110" height="42" fill="#fff"/>
    <rect x="190" y="132" width="150" height="42" fill="#fff"/>
    <rect x="1020" y="80" width="150" height="42" fill="#fff"/>
    <rect x="1170" y="122" width="92" height="42" fill="#fff"/>
  </g>
  <g>
    <path d="M0 560h180l80-120 92 120h170l120-180 132 180h170l92-130 88 130h316v440H0z" fill="#7fb86b"/>
    <path d="M0 640h1440v360H0z" fill="#5d9a45"/>
    <path d="M0 690h1440v310H0z" fill="#7b5738"/>
    <rect x="0" y="640" width="1440" height="56" fill="#a7df70"/>
    <g fill="#6f4c34">
      <rect x="80" y="730" width="96" height="74"/>
      <rect x="176" y="804" width="96" height="74"/>
      <rect x="512" y="736" width="96" height="74"/>
      <rect x="1000" y="728" width="96" height="74"/>
      <rect x="1200" y="810" width="96" height="74"/>
    </g>
  </g>
  <g>
    <g transform="translate(80 370)">
      <rect x="90" y="190" width="54" height="160" fill="#986342"/>
      <rect x="42" y="88" width="150" height="96" fill="#ff98c4"/>
      <rect x="0" y="150" width="142" height="88" fill="#ffd4e7"/>
      <rect x="132" y="138" width="110" height="92" fill="#f779ad"/>
      <rect x="62" y="42" width="116" height="78" fill="#ffb9d8"/>
    </g>
    <g transform="translate(1060 350)">
      <rect x="86" y="210" width="54" height="166" fill="#986342"/>
      <rect x="32" y="108" width="160" height="96" fill="#ff98c4"/>
      <rect x="92" y="60" width="130" height="86" fill="#ffd4e7"/>
      <rect x="144" y="154" width="110" height="92" fill="#f779ad"/>
      <rect x="0" y="178" width="80" height="60" fill="#ffd4e7"/>
    </g>
    <g transform="translate(640 420)">
      <rect x="74" y="162" width="48" height="142" fill="#986342"/>
      <rect x="26" y="78" width="140" height="84" fill="#ff98c4"/>
      <rect x="0" y="136" width="108" height="76" fill="#ffd4e7"/>
      <rect x="112" y="124" width="98" height="80" fill="#f779ad"/>
      <rect x="62" y="30" width="104" height="68" fill="#ffb9d8"/>
    </g>
  </g>
</svg>
